<mxfile host="app.diagrams.net" modified="2021-08-23T18:46:47.057Z" agent="5.0 (Macintosh; Intel Mac OS X 10_15_7) AppleWebKit/537.36 (KHTML, like Gecko) Chrome/92.0.4515.159 Safari/537.36" etag="yPUKiV2EtMH6Q6XeksXb" version="14.9.7" type="github">
  <diagram id="C5RBs43oDa-KdzZeNtuy" name="Page-1">
    <mxGraphModel dx="1545" dy="1160" grid="1" gridSize="10" guides="1" tooltips="1" connect="1" arrows="1" fold="1" page="1" pageScale="1" pageWidth="1169" pageHeight="827" background="#ffffff" math="0" shadow="0">
      <root>
        <mxCell id="WIyWlLk6GJQsqaUBKTNV-0" />
        <mxCell id="WIyWlLk6GJQsqaUBKTNV-1" parent="WIyWlLk6GJQsqaUBKTNV-0" />
        <mxCell id="TTgLs8dpn4O4WDhtMha_-41" value="CLI Project (2) - Ulta Sale App" style="swimlane;childLayout=stackLayout;resizeParent=1;resizeParentMax=0;horizontal=1;startSize=20;horizontalStack=0;strokeColor=#FF0080;fillColor=#FF66B3;fontSize=15;verticalAlign=middle;spacingTop=0;" vertex="1" parent="WIyWlLk6GJQsqaUBKTNV-1">
          <mxGeometry x="4" width="1650" height="750" as="geometry" />
        </mxCell>
        <mxCell id="TTgLs8dpn4O4WDhtMha_-42" value="User" style="swimlane;startSize=20;horizontal=0;strokeColor=#666666;fontColor=#333333;swimlaneFillColor=#E6E6E6;fillColor=#FFCCE6;" vertex="1" parent="TTgLs8dpn4O4WDhtMha_-41">
          <mxGeometry y="20" width="1650" height="120" as="geometry" />
        </mxCell>
        <mxCell id="TTgLs8dpn4O4WDhtMha_-53" value="User Starts App" style="ellipse;whiteSpace=wrap;html=1;strokeColor=#0e8088;fillColor=#8CB5B8;" vertex="1" parent="TTgLs8dpn4O4WDhtMha_-42">
          <mxGeometry x="40" y="10" width="110" height="40" as="geometry" />
        </mxCell>
        <mxCell id="TTgLs8dpn4O4WDhtMha_-56" value="User decides next action" style="rhombus;whiteSpace=wrap;html=1;fillColor=#b0e3e6;strokeColor=#0e8088;" vertex="1" parent="TTgLs8dpn4O4WDhtMha_-42">
          <mxGeometry x="334" y="20" width="80" height="80" as="geometry" />
        </mxCell>
        <mxCell id="TTgLs8dpn4O4WDhtMha_-73" value="User decides next action" style="rhombus;whiteSpace=wrap;html=1;fillColor=#b0e3e6;strokeColor=#0e8088;" vertex="1" parent="TTgLs8dpn4O4WDhtMha_-42">
          <mxGeometry x="620" y="20" width="80" height="80" as="geometry" />
        </mxCell>
        <mxCell id="TTgLs8dpn4O4WDhtMha_-100" value="User decides next action" style="rhombus;whiteSpace=wrap;html=1;fillColor=#b0e3e6;strokeColor=#0e8088;" vertex="1" parent="TTgLs8dpn4O4WDhtMha_-42">
          <mxGeometry x="950" y="20" width="80" height="80" as="geometry" />
        </mxCell>
        <mxCell id="TTgLs8dpn4O4WDhtMha_-131" value="User decides next action" style="rhombus;whiteSpace=wrap;html=1;fillColor=#b0e3e6;strokeColor=#0e8088;" vertex="1" parent="TTgLs8dpn4O4WDhtMha_-42">
          <mxGeometry x="1510" y="20" width="80" height="80" as="geometry" />
        </mxCell>
        <mxCell id="TTgLs8dpn4O4WDhtMha_-43" value="CLI" style="swimlane;startSize=20;horizontal=0;strokeColor=#666666;fontColor=#333333;swimlaneFillColor=#ffffff;fillColor=#FFCCE6;" vertex="1" parent="TTgLs8dpn4O4WDhtMha_-41">
          <mxGeometry y="140" width="1650" height="130" as="geometry" />
        </mxCell>
        <mxCell id="TTgLs8dpn4O4WDhtMha_-55" value="Greeting" style="shape=display;whiteSpace=wrap;html=1;fillColor=#fff2cc;strokeColor=#d6b656;" vertex="1" parent="TTgLs8dpn4O4WDhtMha_-43">
          <mxGeometry x="40" y="30" width="110" height="40" as="geometry" />
        </mxCell>
        <mxCell id="TTgLs8dpn4O4WDhtMha_-65" value="Prints SaleItems Objs as No. List&lt;br&gt;&lt;br&gt;Asks user to select an item" style="shape=display;whiteSpace=wrap;html=1;fillColor=#fff2cc;strokeColor=#d6b656;" vertex="1" parent="TTgLs8dpn4O4WDhtMha_-43">
          <mxGeometry x="170" y="30" width="110" height="40" as="geometry" />
        </mxCell>
        <mxCell id="TTgLs8dpn4O4WDhtMha_-68" value="User inputs # to see product list" style="shape=manualInput;whiteSpace=wrap;html=1;fillColor=#fff2cc;strokeColor=#d6b656;" vertex="1" parent="TTgLs8dpn4O4WDhtMha_-43">
          <mxGeometry x="334" y="20" width="80" height="80" as="geometry" />
        </mxCell>
        <mxCell id="TTgLs8dpn4O4WDhtMha_-72" value="Prints products&amp;nbsp;&lt;br&gt;&lt;br&gt;Asks user if want to add to wish list?" style="shape=display;whiteSpace=wrap;html=1;fillColor=#fff2cc;strokeColor=#d6b656;" vertex="1" parent="TTgLs8dpn4O4WDhtMha_-43">
          <mxGeometry x="460" y="30" width="110" height="40" as="geometry" />
        </mxCell>
        <mxCell id="TTgLs8dpn4O4WDhtMha_-95" value="Ask if want to:&lt;br&gt;1. View All List&lt;br&gt;2. View RV&lt;br&gt;3. View WishList&lt;br&gt;4. EXIT" style="shape=display;whiteSpace=wrap;html=1;fillColor=#fff2cc;strokeColor=#d6b656;" vertex="1" parent="TTgLs8dpn4O4WDhtMha_-43">
          <mxGeometry x="770" y="60" width="110" height="40" as="geometry" />
        </mxCell>
        <mxCell id="TTgLs8dpn4O4WDhtMha_-102" value="User inputs yes/not" style="shape=manualInput;whiteSpace=wrap;html=1;fillColor=#fff2cc;strokeColor=#d6b656;" vertex="1" parent="TTgLs8dpn4O4WDhtMha_-43">
          <mxGeometry x="620" y="40" width="80" height="80" as="geometry" />
        </mxCell>
        <mxCell id="TTgLs8dpn4O4WDhtMha_-96" style="edgeStyle=orthogonalEdgeStyle;rounded=0;orthogonalLoop=1;jettySize=auto;html=1;exitX=1;exitY=0.5;exitDx=0;exitDy=0;" edge="1" parent="TTgLs8dpn4O4WDhtMha_-43" source="TTgLs8dpn4O4WDhtMha_-102" target="TTgLs8dpn4O4WDhtMha_-95">
          <mxGeometry relative="1" as="geometry" />
        </mxCell>
        <mxCell id="TTgLs8dpn4O4WDhtMha_-116" style="edgeStyle=orthogonalEdgeStyle;rounded=0;orthogonalLoop=1;jettySize=auto;html=1;exitX=1;exitY=0.25;exitDx=0;exitDy=0;entryX=0;entryY=0;entryDx=27.5;entryDy=0;entryPerimeter=0;" edge="1" parent="TTgLs8dpn4O4WDhtMha_-43" source="TTgLs8dpn4O4WDhtMha_-107" target="TTgLs8dpn4O4WDhtMha_-65">
          <mxGeometry relative="1" as="geometry">
            <Array as="points">
              <mxPoint x="1130" y="30" />
              <mxPoint x="1130" y="-110" />
              <mxPoint x="198" y="-110" />
            </Array>
          </mxGeometry>
        </mxCell>
        <mxCell id="TTgLs8dpn4O4WDhtMha_-107" value="User inputs 1,2,3,4" style="shape=manualInput;whiteSpace=wrap;html=1;fillColor=#fff2cc;strokeColor=#d6b656;" vertex="1" parent="TTgLs8dpn4O4WDhtMha_-43">
          <mxGeometry x="950" y="10" width="80" height="80" as="geometry" />
        </mxCell>
        <mxCell id="TTgLs8dpn4O4WDhtMha_-94" value="No" style="text;html=1;strokeColor=none;fillColor=none;align=center;verticalAlign=middle;whiteSpace=wrap;rounded=0;" vertex="1" parent="TTgLs8dpn4O4WDhtMha_-43">
          <mxGeometry x="720" y="50" width="40" height="20" as="geometry" />
        </mxCell>
        <mxCell id="TTgLs8dpn4O4WDhtMha_-110" value="Prints Wish List.&amp;nbsp;&lt;br&gt;&lt;br&gt;Asks User if want to remove an item" style="shape=display;whiteSpace=wrap;html=1;fillColor=#fff2cc;strokeColor=#d6b656;" vertex="1" parent="TTgLs8dpn4O4WDhtMha_-43">
          <mxGeometry x="1330" y="30" width="110" height="40" as="geometry" />
        </mxCell>
        <mxCell id="TTgLs8dpn4O4WDhtMha_-123" style="edgeStyle=orthogonalEdgeStyle;rounded=0;orthogonalLoop=1;jettySize=auto;html=1;exitX=0;exitY=0;exitDx=58.75;exitDy=0;exitPerimeter=0;entryX=0;entryY=0;entryDx=27.5;entryDy=0;entryPerimeter=0;" edge="1" parent="TTgLs8dpn4O4WDhtMha_-43" source="TTgLs8dpn4O4WDhtMha_-111" target="TTgLs8dpn4O4WDhtMha_-95">
          <mxGeometry relative="1" as="geometry">
            <Array as="points">
              <mxPoint x="1230" y="-100" />
              <mxPoint x="808" y="-100" />
            </Array>
          </mxGeometry>
        </mxCell>
        <mxCell id="TTgLs8dpn4O4WDhtMha_-111" value="Prints RecentlyViewed products" style="shape=display;whiteSpace=wrap;html=1;fillColor=#fff2cc;strokeColor=#d6b656;" vertex="1" parent="TTgLs8dpn4O4WDhtMha_-43">
          <mxGeometry x="1177.5" y="30" width="120" height="40" as="geometry" />
        </mxCell>
        <mxCell id="TTgLs8dpn4O4WDhtMha_-120" value="2. View RV" style="text;html=1;strokeColor=none;fillColor=none;align=center;verticalAlign=middle;whiteSpace=wrap;rounded=0;" vertex="1" parent="TTgLs8dpn4O4WDhtMha_-43">
          <mxGeometry x="1080" y="70" width="40" height="20" as="geometry" />
        </mxCell>
        <mxCell id="TTgLs8dpn4O4WDhtMha_-117" value="1. View All" style="text;html=1;strokeColor=none;fillColor=none;align=center;verticalAlign=middle;whiteSpace=wrap;rounded=0;" vertex="1" parent="TTgLs8dpn4O4WDhtMha_-43">
          <mxGeometry x="1070" width="40" height="20" as="geometry" />
        </mxCell>
        <mxCell id="TTgLs8dpn4O4WDhtMha_-128" value="3. View WL" style="text;html=1;strokeColor=none;fillColor=none;align=center;verticalAlign=middle;whiteSpace=wrap;rounded=0;" vertex="1" parent="TTgLs8dpn4O4WDhtMha_-43">
          <mxGeometry x="1020" y="100" width="40" height="20" as="geometry" />
        </mxCell>
        <mxCell id="TTgLs8dpn4O4WDhtMha_-137" style="edgeStyle=orthogonalEdgeStyle;rounded=0;orthogonalLoop=1;jettySize=auto;html=1;exitX=0;exitY=0.5;exitDx=0;exitDy=0;entryX=0;entryY=0;entryDx=90;entryDy=0;entryPerimeter=0;" edge="1" parent="TTgLs8dpn4O4WDhtMha_-43" source="TTgLs8dpn4O4WDhtMha_-132" target="TTgLs8dpn4O4WDhtMha_-95">
          <mxGeometry relative="1" as="geometry">
            <mxPoint x="892" y="80" as="targetPoint" />
            <Array as="points">
              <mxPoint x="1470" y="50" />
              <mxPoint x="1470" y="-40" />
              <mxPoint x="860" y="-40" />
            </Array>
          </mxGeometry>
        </mxCell>
        <mxCell id="TTgLs8dpn4O4WDhtMha_-132" value="User inputs no, item#" style="shape=manualInput;whiteSpace=wrap;html=1;fillColor=#fff2cc;strokeColor=#d6b656;" vertex="1" parent="TTgLs8dpn4O4WDhtMha_-43">
          <mxGeometry x="1510" y="10" width="80" height="80" as="geometry" />
        </mxCell>
        <mxCell id="TTgLs8dpn4O4WDhtMha_-141" value="4. EXIT" style="text;html=1;strokeColor=none;fillColor=none;align=center;verticalAlign=middle;whiteSpace=wrap;rounded=0;" vertex="1" parent="TTgLs8dpn4O4WDhtMha_-43">
          <mxGeometry x="940" y="100" width="40" height="20" as="geometry" />
        </mxCell>
        <mxCell id="TTgLs8dpn4O4WDhtMha_-155" value="Yes; Remove" style="text;html=1;strokeColor=none;fillColor=none;align=center;verticalAlign=middle;whiteSpace=wrap;rounded=0;" vertex="1" parent="TTgLs8dpn4O4WDhtMha_-43">
          <mxGeometry x="1570" y="100" width="40" height="20" as="geometry" />
        </mxCell>
        <mxCell id="TTgLs8dpn4O4WDhtMha_-157" value="No" style="text;html=1;strokeColor=none;fillColor=none;align=center;verticalAlign=middle;whiteSpace=wrap;rounded=0;" vertex="1" parent="TTgLs8dpn4O4WDhtMha_-43">
          <mxGeometry x="1470" y="20" width="40" height="10" as="geometry" />
        </mxCell>
        <mxCell id="TTgLs8dpn4O4WDhtMha_-93" value="Yes" style="text;html=1;strokeColor=none;fillColor=none;align=center;verticalAlign=middle;whiteSpace=wrap;rounded=0;" vertex="1" parent="TTgLs8dpn4O4WDhtMha_-43">
          <mxGeometry x="570" y="90" width="40" height="20" as="geometry" />
        </mxCell>
        <mxCell id="TTgLs8dpn4O4WDhtMha_-44" value="SaleItem" style="swimlane;startSize=20;horizontal=0;strokeColor=#666666;fontColor=#333333;labelBorderColor=none;swimlaneFillColor=#E6E6E6;fillColor=#FFCCE6;" vertex="1" parent="TTgLs8dpn4O4WDhtMha_-41">
          <mxGeometry y="270" width="1650" height="120" as="geometry" />
        </mxCell>
        <mxCell id="TTgLs8dpn4O4WDhtMha_-63" value="SaleItem Objects created and stored" style="shape=dataStorage;whiteSpace=wrap;html=1;fixedSize=1;fillColor=#d5e8d4;strokeColor=#82b366;" vertex="1" parent="TTgLs8dpn4O4WDhtMha_-44">
          <mxGeometry x="180" y="20" width="100" height="80" as="geometry" />
        </mxCell>
        <mxCell id="TTgLs8dpn4O4WDhtMha_-70" value="Gets data from SaleItem Obj" style="whiteSpace=wrap;html=1;aspect=fixed;fillColor=#fad7ac;strokeColor=#b46504;" vertex="1" parent="TTgLs8dpn4O4WDhtMha_-44">
          <mxGeometry x="336.5" y="25" width="75" height="75" as="geometry" />
        </mxCell>
        <mxCell id="TTgLs8dpn4O4WDhtMha_-49" value="RecentlyViewed" style="swimlane;startSize=20;horizontal=0;strokeColor=#666666;fontColor=#333333;swimlaneFillColor=#ffffff;fillColor=#FFCCE6;" vertex="1" parent="TTgLs8dpn4O4WDhtMha_-41">
          <mxGeometry y="390" width="1650" height="120" as="geometry" />
        </mxCell>
        <mxCell id="TTgLs8dpn4O4WDhtMha_-76" value="Adds products to RecentlyViewed" style="whiteSpace=wrap;html=1;aspect=fixed;fillColor=#fad7ac;strokeColor=#b46504;" vertex="1" parent="TTgLs8dpn4O4WDhtMha_-49">
          <mxGeometry x="336.5" y="22.5" width="75" height="75" as="geometry" />
        </mxCell>
        <mxCell id="TTgLs8dpn4O4WDhtMha_-112" value="Retrieves data from RV" style="whiteSpace=wrap;html=1;aspect=fixed;fillColor=#fad7ac;strokeColor=#b46504;" vertex="1" parent="TTgLs8dpn4O4WDhtMha_-49">
          <mxGeometry x="1200" y="22.5" width="75" height="75" as="geometry" />
        </mxCell>
        <mxCell id="TTgLs8dpn4O4WDhtMha_-50" value="WishList" style="swimlane;startSize=20;horizontal=0;strokeColor=#666666;fontColor=#333333;swimlaneFillColor=#E6E6E6;fillColor=#FFCCE6;" vertex="1" parent="TTgLs8dpn4O4WDhtMha_-41">
          <mxGeometry y="510" width="1650" height="120" as="geometry" />
        </mxCell>
        <mxCell id="TTgLs8dpn4O4WDhtMha_-88" value="Adds Item to Wish List" style="whiteSpace=wrap;html=1;aspect=fixed;fillColor=#fad7ac;strokeColor=#b46504;" vertex="1" parent="TTgLs8dpn4O4WDhtMha_-50">
          <mxGeometry x="622.5" y="22.5" width="75" height="75" as="geometry" />
        </mxCell>
        <mxCell id="TTgLs8dpn4O4WDhtMha_-91" value="Retrieves data from WL" style="whiteSpace=wrap;html=1;aspect=fixed;fillColor=#fad7ac;strokeColor=#b46504;" vertex="1" parent="TTgLs8dpn4O4WDhtMha_-50">
          <mxGeometry x="1350" y="22.5" width="75" height="75" as="geometry" />
        </mxCell>
        <mxCell id="TTgLs8dpn4O4WDhtMha_-135" value="Removes item from wish list" style="whiteSpace=wrap;html=1;aspect=fixed;fillColor=#ffe6cc;strokeColor=#d79b00;" vertex="1" parent="TTgLs8dpn4O4WDhtMha_-50">
          <mxGeometry x="1512.5" y="22.5" width="75" height="75" as="geometry" />
        </mxCell>
        <mxCell id="TTgLs8dpn4O4WDhtMha_-51" value="Scraper" style="swimlane;startSize=20;horizontal=0;strokeColor=#666666;fontColor=#333333;swimlaneFillColor=#ffffff;fillColor=#FFCCE6;" vertex="1" parent="TTgLs8dpn4O4WDhtMha_-41">
          <mxGeometry y="630" width="1650" height="120" as="geometry" />
        </mxCell>
        <mxCell id="TTgLs8dpn4O4WDhtMha_-57" value="Gets data from Ulta Website" style="whiteSpace=wrap;html=1;aspect=fixed;fillColor=#ffe6cc;strokeColor=#d79b00;" vertex="1" parent="TTgLs8dpn4O4WDhtMha_-51">
          <mxGeometry x="60" y="22.5" width="75" height="75" as="geometry" />
        </mxCell>
        <mxCell id="TTgLs8dpn4O4WDhtMha_-58" style="edgeStyle=orthogonalEdgeStyle;rounded=0;orthogonalLoop=1;jettySize=auto;html=1;exitX=0.5;exitY=1;exitDx=0;exitDy=0;" edge="1" parent="TTgLs8dpn4O4WDhtMha_-41" source="TTgLs8dpn4O4WDhtMha_-53" target="TTgLs8dpn4O4WDhtMha_-55">
          <mxGeometry relative="1" as="geometry" />
        </mxCell>
        <mxCell id="TTgLs8dpn4O4WDhtMha_-62" style="edgeStyle=orthogonalEdgeStyle;rounded=0;orthogonalLoop=1;jettySize=auto;html=1;exitX=0;exitY=0;exitDx=58.75;exitDy=40;exitPerimeter=0;entryX=0.5;entryY=0;entryDx=0;entryDy=0;" edge="1" parent="TTgLs8dpn4O4WDhtMha_-41" source="TTgLs8dpn4O4WDhtMha_-55" target="TTgLs8dpn4O4WDhtMha_-57">
          <mxGeometry relative="1" as="geometry" />
        </mxCell>
        <mxCell id="TTgLs8dpn4O4WDhtMha_-64" style="edgeStyle=orthogonalEdgeStyle;rounded=0;orthogonalLoop=1;jettySize=auto;html=1;exitX=0.5;exitY=1;exitDx=0;exitDy=0;entryX=0.5;entryY=1;entryDx=0;entryDy=0;" edge="1" parent="TTgLs8dpn4O4WDhtMha_-41" source="TTgLs8dpn4O4WDhtMha_-57" target="TTgLs8dpn4O4WDhtMha_-63">
          <mxGeometry relative="1" as="geometry" />
        </mxCell>
        <mxCell id="TTgLs8dpn4O4WDhtMha_-66" style="edgeStyle=orthogonalEdgeStyle;rounded=0;orthogonalLoop=1;jettySize=auto;html=1;exitX=0.5;exitY=0;exitDx=0;exitDy=0;entryX=0;entryY=0;entryDx=58.75;entryDy=40;entryPerimeter=0;" edge="1" parent="TTgLs8dpn4O4WDhtMha_-41" source="TTgLs8dpn4O4WDhtMha_-63" target="TTgLs8dpn4O4WDhtMha_-65">
          <mxGeometry relative="1" as="geometry" />
        </mxCell>
        <mxCell id="TTgLs8dpn4O4WDhtMha_-67" style="edgeStyle=orthogonalEdgeStyle;rounded=0;orthogonalLoop=1;jettySize=auto;html=1;exitX=0;exitY=0;exitDx=58.75;exitDy=0;exitPerimeter=0;entryX=0;entryY=0.5;entryDx=0;entryDy=0;" edge="1" parent="TTgLs8dpn4O4WDhtMha_-41" source="TTgLs8dpn4O4WDhtMha_-65" target="TTgLs8dpn4O4WDhtMha_-56">
          <mxGeometry relative="1" as="geometry" />
        </mxCell>
        <mxCell id="TTgLs8dpn4O4WDhtMha_-69" style="edgeStyle=orthogonalEdgeStyle;rounded=0;orthogonalLoop=1;jettySize=auto;html=1;exitX=0.5;exitY=1;exitDx=0;exitDy=0;" edge="1" parent="TTgLs8dpn4O4WDhtMha_-41" source="TTgLs8dpn4O4WDhtMha_-56" target="TTgLs8dpn4O4WDhtMha_-68">
          <mxGeometry relative="1" as="geometry" />
        </mxCell>
        <mxCell id="TTgLs8dpn4O4WDhtMha_-84" style="edgeStyle=orthogonalEdgeStyle;rounded=0;orthogonalLoop=1;jettySize=auto;html=1;exitX=0.5;exitY=1;exitDx=0;exitDy=0;entryX=0.5;entryY=0;entryDx=0;entryDy=0;" edge="1" parent="TTgLs8dpn4O4WDhtMha_-41" source="TTgLs8dpn4O4WDhtMha_-68" target="TTgLs8dpn4O4WDhtMha_-70">
          <mxGeometry relative="1" as="geometry" />
        </mxCell>
        <mxCell id="TTgLs8dpn4O4WDhtMha_-86" style="edgeStyle=orthogonalEdgeStyle;rounded=0;orthogonalLoop=1;jettySize=auto;html=1;exitX=0.5;exitY=1;exitDx=0;exitDy=0;entryX=0.5;entryY=0;entryDx=0;entryDy=0;" edge="1" parent="TTgLs8dpn4O4WDhtMha_-41" source="TTgLs8dpn4O4WDhtMha_-70" target="TTgLs8dpn4O4WDhtMha_-76">
          <mxGeometry relative="1" as="geometry" />
        </mxCell>
        <mxCell id="TTgLs8dpn4O4WDhtMha_-87" style="edgeStyle=orthogonalEdgeStyle;rounded=0;orthogonalLoop=1;jettySize=auto;html=1;exitX=1;exitY=0.5;exitDx=0;exitDy=0;entryX=0;entryY=0;entryDx=58.75;entryDy=40;entryPerimeter=0;" edge="1" parent="TTgLs8dpn4O4WDhtMha_-41" source="TTgLs8dpn4O4WDhtMha_-70" target="TTgLs8dpn4O4WDhtMha_-72">
          <mxGeometry relative="1" as="geometry" />
        </mxCell>
        <mxCell id="TTgLs8dpn4O4WDhtMha_-90" style="edgeStyle=orthogonalEdgeStyle;rounded=0;orthogonalLoop=1;jettySize=auto;html=1;exitX=0;exitY=0;exitDx=58.75;exitDy=0;exitPerimeter=0;entryX=0;entryY=0.5;entryDx=0;entryDy=0;" edge="1" parent="TTgLs8dpn4O4WDhtMha_-41" source="TTgLs8dpn4O4WDhtMha_-72" target="TTgLs8dpn4O4WDhtMha_-73">
          <mxGeometry relative="1" as="geometry" />
        </mxCell>
        <mxCell id="TTgLs8dpn4O4WDhtMha_-105" style="edgeStyle=orthogonalEdgeStyle;rounded=0;orthogonalLoop=1;jettySize=auto;html=1;exitX=1;exitY=0.5;exitDx=0;exitDy=0;entryX=0;entryY=0;entryDx=27.5;entryDy=40;entryPerimeter=0;" edge="1" parent="TTgLs8dpn4O4WDhtMha_-41" source="TTgLs8dpn4O4WDhtMha_-88" target="TTgLs8dpn4O4WDhtMha_-95">
          <mxGeometry relative="1" as="geometry" />
        </mxCell>
        <mxCell id="TTgLs8dpn4O4WDhtMha_-106" style="edgeStyle=orthogonalEdgeStyle;rounded=0;orthogonalLoop=1;jettySize=auto;html=1;exitX=0;exitY=0;exitDx=58.75;exitDy=0;exitPerimeter=0;entryX=0;entryY=0.5;entryDx=0;entryDy=0;" edge="1" parent="TTgLs8dpn4O4WDhtMha_-41" source="TTgLs8dpn4O4WDhtMha_-95" target="TTgLs8dpn4O4WDhtMha_-100">
          <mxGeometry relative="1" as="geometry" />
        </mxCell>
        <mxCell id="TTgLs8dpn4O4WDhtMha_-108" style="edgeStyle=orthogonalEdgeStyle;rounded=0;orthogonalLoop=1;jettySize=auto;html=1;exitX=0.5;exitY=1;exitDx=0;exitDy=0;entryX=0.504;entryY=0.164;entryDx=0;entryDy=0;entryPerimeter=0;" edge="1" parent="TTgLs8dpn4O4WDhtMha_-41" source="TTgLs8dpn4O4WDhtMha_-100" target="TTgLs8dpn4O4WDhtMha_-107">
          <mxGeometry relative="1" as="geometry" />
        </mxCell>
        <mxCell id="TTgLs8dpn4O4WDhtMha_-118" style="edgeStyle=orthogonalEdgeStyle;rounded=0;orthogonalLoop=1;jettySize=auto;html=1;exitX=1;exitY=0.5;exitDx=0;exitDy=0;entryX=0;entryY=0.5;entryDx=0;entryDy=0;" edge="1" parent="TTgLs8dpn4O4WDhtMha_-41" source="TTgLs8dpn4O4WDhtMha_-107" target="TTgLs8dpn4O4WDhtMha_-112">
          <mxGeometry relative="1" as="geometry" />
        </mxCell>
        <mxCell id="TTgLs8dpn4O4WDhtMha_-127" style="edgeStyle=orthogonalEdgeStyle;rounded=0;orthogonalLoop=1;jettySize=auto;html=1;exitX=0.75;exitY=1;exitDx=0;exitDy=0;entryX=0;entryY=0.5;entryDx=0;entryDy=0;" edge="1" parent="TTgLs8dpn4O4WDhtMha_-41" source="TTgLs8dpn4O4WDhtMha_-107" target="TTgLs8dpn4O4WDhtMha_-91">
          <mxGeometry relative="1" as="geometry" />
        </mxCell>
        <mxCell id="TTgLs8dpn4O4WDhtMha_-129" style="edgeStyle=orthogonalEdgeStyle;rounded=0;orthogonalLoop=1;jettySize=auto;html=1;exitX=0.5;exitY=0;exitDx=0;exitDy=0;entryX=0;entryY=0;entryDx=58.75;entryDy=40;entryPerimeter=0;" edge="1" parent="TTgLs8dpn4O4WDhtMha_-41" source="TTgLs8dpn4O4WDhtMha_-91" target="TTgLs8dpn4O4WDhtMha_-110">
          <mxGeometry relative="1" as="geometry" />
        </mxCell>
        <mxCell id="TTgLs8dpn4O4WDhtMha_-133" style="edgeStyle=orthogonalEdgeStyle;rounded=0;orthogonalLoop=1;jettySize=auto;html=1;exitX=0;exitY=0;exitDx=58.75;exitDy=0;exitPerimeter=0;entryX=0;entryY=0.5;entryDx=0;entryDy=0;" edge="1" parent="TTgLs8dpn4O4WDhtMha_-41" source="TTgLs8dpn4O4WDhtMha_-110" target="TTgLs8dpn4O4WDhtMha_-131">
          <mxGeometry relative="1" as="geometry" />
        </mxCell>
        <mxCell id="TTgLs8dpn4O4WDhtMha_-134" style="edgeStyle=orthogonalEdgeStyle;rounded=0;orthogonalLoop=1;jettySize=auto;html=1;exitX=0.5;exitY=1;exitDx=0;exitDy=0;entryX=0.5;entryY=0;entryDx=0;entryDy=0;" edge="1" parent="TTgLs8dpn4O4WDhtMha_-41" source="TTgLs8dpn4O4WDhtMha_-131" target="TTgLs8dpn4O4WDhtMha_-132">
          <mxGeometry relative="1" as="geometry" />
        </mxCell>
        <mxCell id="TTgLs8dpn4O4WDhtMha_-136" style="edgeStyle=orthogonalEdgeStyle;rounded=0;orthogonalLoop=1;jettySize=auto;html=1;exitX=0.5;exitY=1;exitDx=0;exitDy=0;" edge="1" parent="TTgLs8dpn4O4WDhtMha_-41" source="TTgLs8dpn4O4WDhtMha_-132" target="TTgLs8dpn4O4WDhtMha_-135">
          <mxGeometry relative="1" as="geometry" />
        </mxCell>
        <mxCell id="TTgLs8dpn4O4WDhtMha_-138" style="edgeStyle=orthogonalEdgeStyle;rounded=0;orthogonalLoop=1;jettySize=auto;html=1;exitX=0;exitY=0.5;exitDx=0;exitDy=0;entryX=0;entryY=0;entryDx=90;entryDy=40;entryPerimeter=0;" edge="1" parent="TTgLs8dpn4O4WDhtMha_-41" source="TTgLs8dpn4O4WDhtMha_-135" target="TTgLs8dpn4O4WDhtMha_-110">
          <mxGeometry relative="1" as="geometry">
            <Array as="points">
              <mxPoint x="1450" y="570" />
              <mxPoint x="1450" y="210" />
            </Array>
          </mxGeometry>
        </mxCell>
        <mxCell id="TTgLs8dpn4O4WDhtMha_-143" style="edgeStyle=orthogonalEdgeStyle;rounded=0;orthogonalLoop=1;jettySize=auto;html=1;exitX=0;exitY=0.5;exitDx=0;exitDy=0;" edge="1" parent="TTgLs8dpn4O4WDhtMha_-41" source="TTgLs8dpn4O4WDhtMha_-102" target="TTgLs8dpn4O4WDhtMha_-88">
          <mxGeometry relative="1" as="geometry" />
        </mxCell>
        <mxCell id="TTgLs8dpn4O4WDhtMha_-148" style="edgeStyle=orthogonalEdgeStyle;rounded=0;orthogonalLoop=1;jettySize=auto;html=1;exitX=0.5;exitY=0;exitDx=0;exitDy=0;entryX=0;entryY=0;entryDx=60.3125;entryDy=40;entryPerimeter=0;" edge="1" parent="TTgLs8dpn4O4WDhtMha_-41" source="TTgLs8dpn4O4WDhtMha_-112" target="TTgLs8dpn4O4WDhtMha_-111">
          <mxGeometry relative="1" as="geometry" />
        </mxCell>
        <mxCell id="TTgLs8dpn4O4WDhtMha_-159" style="edgeStyle=orthogonalEdgeStyle;rounded=0;orthogonalLoop=1;jettySize=auto;html=1;exitX=0.5;exitY=1;exitDx=0;exitDy=0;" edge="1" parent="TTgLs8dpn4O4WDhtMha_-41" source="TTgLs8dpn4O4WDhtMha_-73" target="TTgLs8dpn4O4WDhtMha_-102">
          <mxGeometry relative="1" as="geometry" />
        </mxCell>
        <mxCell id="TTgLs8dpn4O4WDhtMha_-139" value="Program Exit" style="ellipse;whiteSpace=wrap;html=1;strokeColor=#0e8088;fillColor=#8CB5B8;" vertex="1" parent="WIyWlLk6GJQsqaUBKTNV-1">
          <mxGeometry x="1654" y="260" width="110" height="40" as="geometry" />
        </mxCell>
        <mxCell id="TTgLs8dpn4O4WDhtMha_-140" style="edgeStyle=orthogonalEdgeStyle;rounded=0;orthogonalLoop=1;jettySize=auto;html=1;exitX=0;exitY=1;exitDx=0;exitDy=0;entryX=0;entryY=0.5;entryDx=0;entryDy=0;" edge="1" parent="WIyWlLk6GJQsqaUBKTNV-1" source="TTgLs8dpn4O4WDhtMha_-107" target="TTgLs8dpn4O4WDhtMha_-139">
          <mxGeometry relative="1" as="geometry">
            <Array as="points">
              <mxPoint x="970" y="710" />
              <mxPoint x="1650" y="710" />
              <mxPoint x="1650" y="280" />
            </Array>
          </mxGeometry>
        </mxCell>
      </root>
    </mxGraphModel>
  </diagram>
</mxfile>
